<?xml version="1.0" standalone="no"?>
<!DOCTYPE svg PUBLIC "-//W3C//DTD SVG 20010904//EN"
 "http://www.w3.org/TR/2001/REC-SVG-20010904/DTD/svg10.dtd">
<svg version="1.0" xmlns="http://www.w3.org/2000/svg"
 width="1300.000000pt" height="1300.000000pt" viewBox="0 0 1300.000000 1300.000000"
 preserveAspectRatio="xMidYMid meet">
<metadata>
Created by potrace 1.14, written by Peter Selinger 2001-2017
</metadata>
<g transform="translate(0.000000,1300.000000) scale(0.100000,-0.100000)"
fill="#000000" stroke="none">
<path d="M3221 10973 l-23 -19 0 -4404 0 -4404 24 -21 24 -21 1259 2 c1131 1
1391 4 1560 19 28 2 86 7 130 10 44 3 96 8 115 10 19 3 94 11 165 20 148 17
157 19 315 46 1742 301 2870 1295 3270 2880 29 112 70 311 84 404 4 22 8 47
11 55 2 8 6 40 10 71 3 31 7 65 9 75 3 18 20 165 31 279 10 111 20 382 20 585
-1 200 -12 557 -19 597 -2 10 -7 58 -11 107 -4 49 -8 98 -10 110 -2 11 -6 48
-10 81 -3 33 -12 101 -20 150 -8 50 -17 110 -20 135 -14 102 -79 390 -120 535
-307 1078 -905 1796 -1865 2238 -122 57 -377 155 -455 177 -16 4 -59 17 -95
28 -163 52 -472 126 -630 152 -86 13 -122 20 -140 25 -8 2 -42 7 -75 10 -33 4
-67 8 -75 10 -16 5 -146 20 -245 30 -33 3 -73 8 -90 10 -16 2 -77 7 -135 10
-58 4 -116 9 -130 12 -14 4 -658 8 -1431 10 -1362 4 -1406 4 -1428 -14z m2594
-1547 c934 -72 1549 -452 1882 -1164 140 -298 239 -681 278 -1072 4 -36 8 -76
10 -90 26 -159 26 -881 0 -1085 -2 -16 -7 -52 -10 -80 -60 -536 -203 -976
-426 -1320 -245 -376 -602 -647 -1046 -794 -115 -38 -302 -83 -393 -96 -25 -3
-52 -8 -60 -10 -16 -4 -101 -13 -225 -24 -44 -4 -179 -9 -300 -10 l-220 -2 1
2873 c1 1580 2 2876 3 2879 1 7 393 3 506 -5z"/>
</g>
</svg>
